<svg width="98" height="60" viewBox="0 0 98 60" fill="none" xmlns="http://www.w3.org/2000/svg">
<path d="M6.89453 23.492C6.89453 23.492 11.3267 -0.0356613 26.593 5.84571C43.9799 12.544 15.2664 54.5966 32.995 57.8053C50.7237 61.0141 38.4121 23.492 49.2463 23.492C57.1257 23.492 52.6935 42.4134 64.0202 40.158C75.3468 37.9025 58.1106 5.84571 87.6583 5.84571" stroke="#5A644B" stroke-width="3.5" stroke-linecap="round"/>
<path d="M9.57663 27.2047C9.57663 29.3438 7.83227 31.0918 5.66332 31.0918C3.49436 31.0918 1.75 29.3438 1.75 27.2047C1.75 25.0657 3.49436 23.3177 5.66332 23.3177C7.83227 23.3177 9.57663 25.0657 9.57663 27.2047Z" stroke="#5A644B" stroke-width="3.5"/>
<path d="M96.25 5.63702C96.25 7.7761 94.5056 9.52404 92.3367 9.52404C90.1677 9.52404 88.4233 7.7761 88.4233 5.63702C88.4233 3.49795 90.1677 1.75 92.3367 1.75C94.5056 1.75 96.25 3.49795 96.25 5.63702Z" stroke="#5A644B" stroke-width="3.5"/>
</svg>
